<svg xmlns="http://www.w3.org/2000/svg" viewBox="0 0 64 64">
  <rect width="64" height="64" rx="15" fill="#176b52"/>
  <g fill="none" stroke="#ffffff" stroke-linecap="round" stroke-linejoin="round">
    <rect x="12" y="17" width="27" height="37" rx="5" transform="rotate(-12 12 17)" stroke-width="4"/>
    <path d="M20 27c2-2 5-2 7 .5.5.7.7 1.5.7 2.2.8-.3 1.7-.2 2.5.1 2.6 1 3.5 4.4 1.8 6.5-2.2 2.8-6.5 1.9-8.2-.5-.8 2.4-.5 4.2.5 5.8" stroke-width="3.2"/>
    <rect x="28" y="9" width="26" height="38" rx="5" fill="#176b52" stroke-width="4"/>
  </g>
  <path d="M41 19c-3.2 3.7-6.1 5.8-6.1 9.2a6.1 6.1 0 0 0 12.2 0c0-3.4-2.9-5.5-6.1-9.2Z" fill="#ffffff"/>
  <path d="M41 34v5.3m-3.1 0h6.2" fill="none" stroke="#ffffff" stroke-width="3" stroke-linecap="round"/>
</svg>
